# Blender 4.3.2
# www.blender.org
mtllib house.mtl
o Stylised_building
v -2.343199 0.263699 -2.323766
v 1.156802 3.500000 1.176233
v -2.343198 3.500000 1.176234
v 1.156801 3.500000 -2.323767
v 1.156801 0.263699 -2.323767
v 1.156802 0.263699 1.176233
v -2.343199 0.263699 -0.301806
v -2.343199 3.500000 -2.323766
v -2.343199 0.263699 -1.929531
v -2.343199 3.048445 -1.929531
v -2.343198 0.263699 1.176234
v 0.443255 1.265851 1.176233
v 0.443255 2.786453 1.176233
v -1.629652 2.786453 1.176233
v -1.629652 1.265851 1.176233
v -2.343198 1.078973 0.438169
v -2.343198 1.862826 0.438169
v -2.343198 1.862826 1.075969
v -2.343198 1.078973 1.075969
v -2.343199 3.048445 -0.301806
v 0.443254 1.265851 -2.323767
v 0.443254 2.786453 -2.323767
v -1.629653 2.786453 -2.323767
v -1.629653 1.265851 -2.323767
vn 1.0000 -0.0000 -0.0000
vn -1.0000 -0.0000 -0.0000
vn -0.0000 -0.0000 1.0000
vn -0.0000 -0.0000 -1.0000
vt 0.038609 0.607084
s 0
usemtl pixel_texture
f 5/1/1 4/1/1 2/1/1 6/1/1
f 20/1/2 3/1/2 8/1/2 10/1/2
f 9/1/2 10/1/2 8/1/2 1/1/2
f 13/1/3 12/1/3 6/1/3 2/1/3
f 14/1/3 13/1/3 2/1/3 3/1/3
f 15/1/3 14/1/3 3/1/3 11/1/3
f 12/1/3 15/1/3 11/1/3 6/1/3
f 18/1/2 19/1/2 11/1/2 3/1/2
f 19/1/2 16/1/2 7/1/2 11/1/2
f 16/1/2 17/1/2 20/1/2 7/1/2
f 17/1/2 18/1/2 3/1/2 20/1/2
f 22/1/4 4/1/4 5/1/4 21/1/4
f 23/1/4 8/1/4 4/1/4 22/1/4
f 24/1/4 1/1/4 8/1/4 23/1/4
f 21/1/4 5/1/4 1/1/4 24/1/4
o Cube.195
v 1.506607 3.500000 1.526038
v -2.343199 0.263699 -2.323767
v -2.693004 3.500000 1.526039
v 1.506607 3.500000 -2.673573
v 1.352288 0.263699 1.371718
v -2.693004 3.500000 -2.673572
v 1.003295 3.796607 -1.317317
v 0.186222 3.796607 -1.317317
v 0.186222 3.796607 -0.500243
v 1.003295 3.796607 -0.500244
v 1.156802 3.500000 1.176233
v -2.343198 3.500000 1.176233
v 1.156801 3.500000 -2.323767
v 1.156802 3.796607 1.176233
v -2.343198 3.796607 1.176233
v -2.343199 3.796607 -2.323767
v 1.156801 3.796607 -2.323767
v 1.156802 4.201480 1.176233
v -2.343198 4.201480 1.176233
v -2.343199 4.201480 -2.323767
v 1.156801 4.201480 -2.323767
v 1.506607 4.201480 1.526038
v -2.693004 4.201480 1.526039
v -2.693004 4.201480 -2.673572
v 1.506607 4.201480 -2.673573
v 0.791919 5.053637 -1.105941
v 0.791919 5.053637 -0.711620
v 0.397598 5.053637 -1.105941
v 0.397598 5.053637 -0.711620
v 0.286567 5.053637 -0.600589
v 0.286567 5.053637 -1.216972
v 0.902950 5.053637 -0.600589
v 0.902950 5.053637 -1.216972
v 0.333404 4.617055 -0.647426
v 0.333404 4.617055 -1.170135
v 0.856113 4.617055 -0.647426
v 0.856113 4.617055 -1.170135
v -2.538685 0.000000 -1.546510
v 1.156801 0.263699 -2.323767
v -2.538685 0.263699 -1.546510
v -2.343199 0.263699 -1.448767
v 1.156802 0.263699 1.176233
v -2.343199 0.263699 -0.573767
v -2.538684 0.000000 1.371719
v 1.352288 0.000000 1.371718
v -2.538685 0.000000 -2.519253
v 1.352287 0.000000 -2.519253
v 1.352287 0.263699 -2.519253
v -2.538685 0.263699 -2.519253
v -2.538684 0.263699 1.371719
v -2.538684 0.263699 -0.573767
v -2.538684 0.000000 -0.573767
v -2.666929 0.131849 -1.546510
v -2.538684 0.131849 -0.573767
v -2.666929 0.000000 -0.573767
v -2.538685 0.131849 -1.546510
v -2.666929 0.131849 -0.573767
v -2.666929 0.000000 -1.546510
v -2.343199 0.263699 -0.301806
v -2.343199 3.500000 -2.323767
v -2.343199 0.263699 -1.929531
v -2.343199 2.813486 -0.536990
v -2.343199 2.813486 -1.655621
v -2.343199 3.048445 -1.929531
v -2.343199 0.452538 -0.536990
v -2.343199 0.452538 -1.655621
v -2.394779 3.048445 -0.301806
v -2.394779 0.263699 -0.301806
v -2.394779 0.452538 -0.536990
v -2.394779 0.452538 -1.655621
v -2.394779 3.048445 -1.929531
v -2.394779 0.263699 -1.929531
v -2.394779 2.813486 -0.536990
v -2.394779 2.813486 -1.655621
v -2.343198 0.263699 1.176233
v 0.443255 1.265851 1.176233
v 0.443255 2.786453 1.176233
v -1.629652 2.786453 1.176233
v -1.629652 1.265851 1.176233
v 0.384911 2.728109 1.246340
v -1.571308 2.728109 1.246340
v 0.443255 1.265851 1.246340
v 0.443255 2.786453 1.246340
v -1.629652 2.786453 1.246340
v -1.629652 1.265851 1.246340
v 0.384911 1.324195 1.246340
v -1.571308 1.324195 1.246340
v -0.633665 2.728109 1.246340
v -0.552732 2.728109 1.246340
v -0.552732 1.324195 1.246340
v -0.633665 1.324195 1.246340
v 0.384911 1.324195 1.203601
v 0.384911 2.728109 1.203601
v -1.571308 2.728109 1.203601
v -1.571308 1.324195 1.203601
v -0.633665 2.728109 1.203601
v -0.633665 1.324195 1.203601
v -0.552732 1.324195 1.203601
v -0.552732 2.728109 1.203601
v -2.343199 1.078973 0.438169
v -2.343199 1.862826 0.438169
v -2.494805 1.404578 0.950675
v -2.494805 1.404578 0.563462
v -2.533541 1.511744 0.950675
v -2.533541 1.511744 0.563462
v -2.609767 1.078973 1.075969
v -2.609767 1.078973 0.438169
v -2.609767 1.657588 1.075969
v -2.609767 1.657588 0.438169
v -2.609767 1.436486 0.950675
v -2.609767 1.436486 0.563462
v -2.609767 1.543048 0.950675
v -2.609767 1.543048 0.563462
v -2.343198 1.862826 1.075969
v -2.343198 1.078973 1.075969
v -2.343199 3.048445 -0.301806
v 0.443255 1.265851 -2.323767
v 0.443255 2.786453 -2.323767
v -1.629652 2.786453 -2.323767
v -1.629652 1.265851 -2.323767
v -1.571308 2.728109 -2.393874
v 0.443255 1.265851 -2.393874
v 0.443255 2.786453 -2.393874
v -1.629653 2.786453 -2.393874
v -1.629653 1.265851 -2.393874
v 0.384910 1.324195 -2.393874
v 0.384910 2.728109 -2.393874
v -1.571308 1.324195 -2.393874
v -0.633666 2.728109 -2.393874
v -0.552732 2.728109 -2.393874
v -0.552732 1.324195 -2.393874
v -0.633666 1.324195 -2.393874
v 0.384910 1.324195 -2.351135
v 0.384910 2.728109 -2.351135
v -1.571308 2.728109 -2.351135
v -1.571308 1.324195 -2.351135
v -0.633666 2.728109 -2.351135
v -0.633666 1.324195 -2.351135
v -0.552732 1.324195 -2.351135
v -0.552732 2.728109 -2.351135
v -2.394779 2.917433 -0.432944
v -2.394779 2.944499 -0.405852
v -2.356216 0.358119 -0.419398
v -2.394779 0.369031 -0.432989
v -2.356216 0.358119 -1.792576
v -2.394779 0.368975 -1.776830
v -2.356216 2.930965 -1.792576
v -2.394779 2.917485 -1.776862
v -2.394779 2.944445 -1.808291
v -2.356216 2.930965 -0.419398
v -2.394779 0.347263 -1.808323
v -2.394779 0.347206 -0.405808
v -2.343199 2.813486 -0.536990
v -2.343199 2.813486 -1.655621
v -2.343199 0.452538 -0.536990
v -2.343199 0.452538 -1.655621
v 0.384911 1.324195 1.203601
v 0.384911 2.728109 1.203601
v -1.571308 2.728109 1.203601
v -1.571308 1.324195 1.203601
v -0.633665 2.728109 1.203601
v -0.633665 1.324195 1.203601
v -0.552732 1.324195 1.203601
v -0.552732 2.728109 1.203601
v 0.384910 1.324195 -2.351135
v 0.384910 2.728109 -2.351135
v -1.571308 2.728109 -2.351135
v -1.571308 1.324195 -2.351135
v -0.633666 2.728109 -2.351135
v -0.633666 1.324195 -2.351135
v -0.552732 1.324195 -2.351135
v -0.552732 2.728109 -2.351135
vn -0.0000 -1.0000 -0.0000
vn -0.0000 1.0000 -0.0000
vn -1.0000 -0.0000 -0.0000
vn -0.0000 -0.0000 -1.0000
vn 1.0000 -0.0000 -0.0000
vn -0.0000 -0.0000 1.0000
vn 0.9968 0.0796 -0.0000
vn -0.9894 -0.1455 -0.0000
vn -0.0000 0.0796 0.9968
vn -0.9968 0.0796 -0.0000
vn -0.0000 0.0796 -0.9968
vn -0.0000 -0.1455 -0.9894
vn -0.0000 -0.1455 0.9894
vn 0.9894 -0.1455 -0.0000
vn -0.9404 -0.3399 -0.0000
vn -0.6101 0.7924 -0.0000
vn 0.2674 0.9636 -0.0000
vn -0.3799 -0.9250 -0.0000
vn -0.3306 -0.9438 -0.0000
vn -0.3306 0.9438 -0.0000
vn -0.3777 -0.0000 0.9259
vn -0.3777 -0.0000 -0.9259
vn -0.2716 0.9624 -0.0000
vn -0.2716 -0.9624 -0.0000
vn -0.3319 -0.0000 -0.9433
vn -0.3319 -0.0000 0.9433
vt 0.038830 0.577916
vt 0.038298 0.591832
vt 0.039663 0.622464
vt 0.038358 0.561242
vt 0.038830 0.577916
vt 0.038830 0.577916
vt 0.023159 0.884630
vt 1.000000 0.257271
vt 1.000000 1.000000
vt 0.000000 1.000000
vt 0.000000 0.257271
vt 1.000000 1.000000
vt 0.520686 1.000000
vt 0.520686 0.257271
vt 0.479314 0.257271
vt 0.479314 1.000000
vt 0.000000 1.000000
vt 1.000000 0.000000
vt 0.520686 0.000000
vt 0.479314 0.000000
vt 0.000000 0.000000
s 0
usemtl pixel_texture
f 144/2/5 149/2/5 146/2/5 141/2/5
f 40/3/6 39/3/6 38/3/6 41/3/6
f 27/2/7 47/2/7 48/2/7 30/2/7
f 30/2/8 48/2/8 49/2/8 28/2/8
f 28/2/9 49/2/9 46/2/9 25/2/9
f 25/2/5 27/2/5 36/2/5 35/2/5
f 27/2/5 30/2/5 84/2/5 36/2/5
f 30/2/5 28/2/5 37/2/5 84/2/5
f 28/2/5 25/2/5 35/2/5 37/2/5
f 38/2/8 39/2/8 43/2/8 42/2/8
f 40/2/10 41/2/10 45/2/10 44/2/10
f 34/4/11 31/4/11 57/4/11 56/4/11
f 51/4/12 50/4/12 61/4/12 60/4/12
f 47/2/6 46/2/6 42/2/6 43/2/6
f 48/2/6 47/2/6 43/2/6 44/2/6
f 49/2/6 48/2/6 44/2/6 45/2/6
f 46/2/6 49/2/6 45/2/6 42/2/6
f 33/4/13 34/4/13 56/4/13 54/4/13
f 41/2/7 38/2/7 42/2/7 45/2/7
f 32/4/14 33/4/14 54/4/14 55/4/14
f 39/2/9 40/2/9 44/2/9 43/2/9
f 25/2/10 46/2/10 47/2/10 27/2/10
f 31/4/15 32/4/15 55/4/15 57/4/15
f 53/4/6 52/4/6 55/4/6 54/4/6
f 51/4/6 53/4/6 54/4/6 56/4/6
f 52/4/6 50/4/6 57/4/6 55/4/6
f 50/4/6 51/4/6 56/4/6 57/4/6
f 59/2/6 58/2/6 60/2/6 61/2/6
f 53/4/16 51/4/16 60/4/16 58/4/16
f 50/4/17 52/4/17 59/4/17 61/4/17
f 52/4/18 53/4/18 58/4/18 59/4/18
f 78/5/6 80/5/6 77/5/6 81/5/6
f 80/5/8 62/5/8 82/5/8 77/5/8
f 79/5/7 81/5/7 77/5/7 82/5/7
f 62/5/7 64/5/7 73/5/7 70/5/7
f 70/5/8 73/5/8 72/5/8 71/5/8
f 71/5/9 72/5/9 29/5/9 69/5/9
f 69/5/10 29/5/10 74/5/10 68/5/10
f 78/5/7 75/5/7 64/5/7 80/5/7
f 73/5/6 64/5/6 65/5/6 26/5/6
f 68/5/7 74/5/7 75/5/7 76/5/7
f 64/5/6 75/5/6 67/5/6 65/5/6
f 29/5/6 72/5/6 63/5/6 66/5/6
f 72/5/6 73/5/6 26/5/6 63/5/6
f 75/5/6 74/5/6 99/5/6 67/5/6
f 74/5/6 29/5/6 66/5/6 99/5/6
f 76/5/10 78/5/10 81/5/10 79/5/10
f 140/2/6 88/2/6 95/2/6 91/2/6
f 103/2/5 100/2/5 106/2/5 109/2/5
f 88/2/8 85/2/8 96/2/8 95/2/8
f 87/2/5 86/2/5 97/2/5 98/2/5
f 176/2/7 175/6/7 96/2/7 92/6/7
f 93/2/7 94/2/7 170/2/7 168/2/7
f 94/2/7 98/2/7 172/2/7 170/2/7
f 98/2/7 97/2/7 165/2/7 172/2/7
f 90/2/10 87/2/10 98/2/10 94/2/10
f 89/2/6 90/2/6 94/2/6 93/2/6
f 86/2/8 89/2/8 93/2/8 97/2/8
f 83/6/10 140/2/10 91/2/10 92/6/10
f 101/2/6 102/2/6 108/2/6 107/2/6
f 102/2/7 103/2/7 109/2/7 108/2/7
f 100/2/9 101/2/9 107/2/9 106/2/9
f 104/7/10 110/6/10 106/2/10 107/2/10
f 105/2/10 104/7/10 107/2/10 108/2/10
f 111/2/10 105/2/10 108/2/10 109/2/10
f 110/6/10 111/2/10 109/2/10 106/2/10
f 112/2/10 115/2/10 114/2/10 113/2/10
f 117/7/7 116/6/7 110/6/7 104/7/7
f 119/2/9 118/2/9 105/2/9 111/2/9
f 120/2/7 121/2/7 115/2/7 112/2/7
f 122/2/9 123/2/9 113/2/9 114/2/9
f 121/2/6 119/2/6 111/2/6 115/2/6
f 118/2/5 120/2/5 112/2/5 105/2/5
f 116/6/6 122/2/6 114/2/6 110/6/6
f 123/2/5 117/7/5 104/7/5 113/2/5
f 127/8/19 126/8/19 128/8/19 129/8/19
f 139/8/10 138/8/10 132/8/10 130/8/10
f 138/8/20 125/8/20 133/8/20 132/8/20
f 125/8/8 124/8/8 131/8/8 133/8/8
f 124/8/5 139/8/5 130/8/5 131/8/5
f 134/8/7 135/8/7 131/8/7 130/8/7
f 137/8/7 136/8/7 132/8/7 133/8/7
f 135/8/7 137/8/7 133/8/7 131/8/7
f 136/8/7 134/8/7 130/8/7 132/8/7
f 126/8/21 127/8/21 135/8/21 134/8/21
f 129/8/22 128/8/22 136/8/22 137/8/22
f 127/8/10 129/8/10 137/8/10 135/8/10
f 128/8/8 126/8/8 134/8/8 136/8/8
f 142/2/6 147/2/6 148/2/6 143/2/6
f 143/2/7 148/2/7 149/2/7 144/2/7
f 141/2/9 146/2/9 147/2/9 142/2/9
f 151/7/8 147/2/8 146/2/8 150/6/8
f 145/2/8 148/2/8 147/2/8 151/7/8
f 152/2/8 149/2/8 148/2/8 145/2/8
f 150/6/8 146/2/8 149/2/8 152/2/8
f 153/2/8 154/2/8 155/2/8 156/2/8
f 158/7/7 151/7/7 150/6/7 157/6/7
f 160/2/9 152/2/9 145/2/9 159/2/9
f 161/2/7 153/2/7 156/2/7 162/2/7
f 163/2/9 155/2/9 154/2/9 164/2/9
f 162/2/6 156/2/6 152/2/6 160/2/6
f 159/2/5 145/2/5 153/2/5 161/2/5
f 157/6/6 150/6/6 155/2/6 163/2/6
f 164/2/5 154/2/5 151/7/5 158/7/5
f 166/2/7 176/2/7 92/6/7 91/2/7
f 175/2/7 173/2/7 95/2/7 96/2/7
f 173/2/7 166/2/7 91/2/7 95/2/7
f 97/2/7 93/2/7 168/2/7 165/2/7
f 171/2/23 174/2/23 166/2/23 173/2/23
f 174/2/24 171/2/24 172/2/24 165/2/24
f 169/6/25 171/2/25 173/2/25 175/2/25
f 171/2/26 169/2/26 170/2/26 172/2/26
f 167/2/27 169/6/27 175/6/27 176/2/27
f 169/2/28 167/2/28 168/2/28 170/2/28
f 174/2/29 167/2/29 176/2/29 166/2/29
f 167/2/30 174/2/30 165/2/30 168/2/30
usemtl glass_5
f 179/9/7 177/10/7 178/11/7 180/12/7
f 181/9/10 182/13/10 188/14/10 187/15/10
f 186/16/10 185/17/10 183/18/10 184/12/10
f 189/19/8 195/20/8 196/14/8 190/13/8
f 194/21/8 192/22/8 191/18/8 193/17/8
